<mxfile host="app.diagrams.net" modified="2023-08-11T20:14:01.498Z" agent="Mozilla/5.0 (Windows NT 10.0; Win64; x64) AppleWebKit/537.36 (KHTML, like Gecko) Chrome/115.0.0.0 Safari/537.36" etag="3wO530J7zxXV2vWAtPHI" version="21.6.8" type="device">
  <diagram name="PÃ¡gina-1" id="-UqOvuyFnjue3LK-ySTj">
    <mxGraphModel dx="1050" dy="574" grid="1" gridSize="10" guides="1" tooltips="1" connect="1" arrows="1" fold="1" page="1" pageScale="1" pageWidth="827" pageHeight="1169" math="0" shadow="0">
      <root>
        <mxCell id="0" />
        <mxCell id="1" parent="0" />
        <mxCell id="ED3dZGPAHlgf_PBoWWwv-10" style="edgeStyle=orthogonalEdgeStyle;rounded=0;orthogonalLoop=1;jettySize=auto;html=1;endArrow=none;endFill=0;" edge="1" parent="1" source="ED3dZGPAHlgf_PBoWWwv-1" target="ED3dZGPAHlgf_PBoWWwv-6">
          <mxGeometry relative="1" as="geometry" />
        </mxCell>
        <mxCell id="ED3dZGPAHlgf_PBoWWwv-12" style="edgeStyle=orthogonalEdgeStyle;rounded=0;orthogonalLoop=1;jettySize=auto;html=1;endArrow=none;endFill=0;" edge="1" parent="1" source="ED3dZGPAHlgf_PBoWWwv-1" target="ED3dZGPAHlgf_PBoWWwv-7">
          <mxGeometry relative="1" as="geometry" />
        </mxCell>
        <mxCell id="ED3dZGPAHlgf_PBoWWwv-1" value="Usuario" style="rounded=0;whiteSpace=wrap;html=1;" vertex="1" parent="1">
          <mxGeometry x="240" y="240" width="120" height="60" as="geometry" />
        </mxCell>
        <mxCell id="ED3dZGPAHlgf_PBoWWwv-2" value="TipoUsuario" style="rounded=0;whiteSpace=wrap;html=1;" vertex="1" parent="1">
          <mxGeometry x="520" y="240" width="120" height="60" as="geometry" />
        </mxCell>
        <mxCell id="ED3dZGPAHlgf_PBoWWwv-3" value="Consulta" style="rounded=0;whiteSpace=wrap;html=1;" vertex="1" parent="1">
          <mxGeometry x="240" y="440" width="120" height="60" as="geometry" />
        </mxCell>
        <mxCell id="ED3dZGPAHlgf_PBoWWwv-8" style="edgeStyle=orthogonalEdgeStyle;rounded=0;orthogonalLoop=1;jettySize=auto;html=1;endArrow=none;endFill=0;" edge="1" parent="1" source="ED3dZGPAHlgf_PBoWWwv-4" target="ED3dZGPAHlgf_PBoWWwv-5">
          <mxGeometry relative="1" as="geometry" />
        </mxCell>
        <mxCell id="ED3dZGPAHlgf_PBoWWwv-27" style="edgeStyle=orthogonalEdgeStyle;rounded=0;orthogonalLoop=1;jettySize=auto;html=1;entryX=0;entryY=0.5;entryDx=0;entryDy=0;" edge="1" parent="1" source="ED3dZGPAHlgf_PBoWWwv-4" target="ED3dZGPAHlgf_PBoWWwv-26">
          <mxGeometry relative="1" as="geometry" />
        </mxCell>
        <mxCell id="ED3dZGPAHlgf_PBoWWwv-4" value="Clinica" style="rounded=0;whiteSpace=wrap;html=1;" vertex="1" parent="1">
          <mxGeometry x="240" y="30" width="120" height="60" as="geometry" />
        </mxCell>
        <mxCell id="ED3dZGPAHlgf_PBoWWwv-9" style="edgeStyle=orthogonalEdgeStyle;rounded=0;orthogonalLoop=1;jettySize=auto;html=1;endArrow=none;endFill=0;" edge="1" parent="1" source="ED3dZGPAHlgf_PBoWWwv-5" target="ED3dZGPAHlgf_PBoWWwv-1">
          <mxGeometry relative="1" as="geometry" />
        </mxCell>
        <mxCell id="ED3dZGPAHlgf_PBoWWwv-5" value="possui" style="rhombus;whiteSpace=wrap;html=1;" vertex="1" parent="1">
          <mxGeometry x="260" y="130" width="80" height="80" as="geometry" />
        </mxCell>
        <mxCell id="ED3dZGPAHlgf_PBoWWwv-11" style="edgeStyle=orthogonalEdgeStyle;rounded=0;orthogonalLoop=1;jettySize=auto;html=1;endArrow=none;endFill=0;" edge="1" parent="1" source="ED3dZGPAHlgf_PBoWWwv-6" target="ED3dZGPAHlgf_PBoWWwv-3">
          <mxGeometry relative="1" as="geometry" />
        </mxCell>
        <mxCell id="ED3dZGPAHlgf_PBoWWwv-6" value="possui" style="rhombus;whiteSpace=wrap;html=1;" vertex="1" parent="1">
          <mxGeometry x="260" y="330" width="80" height="80" as="geometry" />
        </mxCell>
        <mxCell id="ED3dZGPAHlgf_PBoWWwv-13" style="edgeStyle=orthogonalEdgeStyle;rounded=0;orthogonalLoop=1;jettySize=auto;html=1;endArrow=none;endFill=0;" edge="1" parent="1" source="ED3dZGPAHlgf_PBoWWwv-7" target="ED3dZGPAHlgf_PBoWWwv-2">
          <mxGeometry relative="1" as="geometry" />
        </mxCell>
        <mxCell id="ED3dZGPAHlgf_PBoWWwv-7" value="possui" style="rhombus;whiteSpace=wrap;html=1;" vertex="1" parent="1">
          <mxGeometry x="400" y="230" width="80" height="80" as="geometry" />
        </mxCell>
        <mxCell id="ED3dZGPAHlgf_PBoWWwv-16" value="1" style="text;html=1;align=center;verticalAlign=middle;resizable=0;points=[];autosize=1;strokeColor=none;fillColor=none;" vertex="1" parent="1">
          <mxGeometry x="305" y="88" width="30" height="30" as="geometry" />
        </mxCell>
        <mxCell id="ED3dZGPAHlgf_PBoWWwv-17" value="n" style="text;html=1;align=center;verticalAlign=middle;resizable=0;points=[];autosize=1;strokeColor=none;fillColor=none;" vertex="1" parent="1">
          <mxGeometry x="295" y="208" width="30" height="30" as="geometry" />
        </mxCell>
        <mxCell id="ED3dZGPAHlgf_PBoWWwv-18" value="1" style="text;html=1;align=center;verticalAlign=middle;resizable=0;points=[];autosize=1;strokeColor=none;fillColor=none;" vertex="1" parent="1">
          <mxGeometry x="355" y="248" width="30" height="30" as="geometry" />
        </mxCell>
        <mxCell id="ED3dZGPAHlgf_PBoWWwv-19" value="1" style="text;html=1;align=center;verticalAlign=middle;resizable=0;points=[];autosize=1;strokeColor=none;fillColor=none;" vertex="1" parent="1">
          <mxGeometry x="495" y="248" width="30" height="30" as="geometry" />
        </mxCell>
        <mxCell id="ED3dZGPAHlgf_PBoWWwv-20" value="1" style="text;html=1;align=center;verticalAlign=middle;resizable=0;points=[];autosize=1;strokeColor=none;fillColor=none;" vertex="1" parent="1">
          <mxGeometry x="305" y="298" width="30" height="30" as="geometry" />
        </mxCell>
        <mxCell id="ED3dZGPAHlgf_PBoWWwv-21" value="n" style="text;html=1;align=center;verticalAlign=middle;resizable=0;points=[];autosize=1;strokeColor=none;fillColor=none;" vertex="1" parent="1">
          <mxGeometry x="305" y="408" width="30" height="30" as="geometry" />
        </mxCell>
        <mxCell id="ED3dZGPAHlgf_PBoWWwv-23" value="Medico" style="rounded=0;whiteSpace=wrap;html=1;" vertex="1" parent="1">
          <mxGeometry x="520" y="30" width="120" height="60" as="geometry" />
        </mxCell>
        <mxCell id="ED3dZGPAHlgf_PBoWWwv-28" style="edgeStyle=orthogonalEdgeStyle;rounded=0;orthogonalLoop=1;jettySize=auto;html=1;" edge="1" parent="1" source="ED3dZGPAHlgf_PBoWWwv-26" target="ED3dZGPAHlgf_PBoWWwv-23">
          <mxGeometry relative="1" as="geometry" />
        </mxCell>
        <mxCell id="ED3dZGPAHlgf_PBoWWwv-26" value="possui" style="rhombus;whiteSpace=wrap;html=1;" vertex="1" parent="1">
          <mxGeometry x="400" y="20" width="80" height="80" as="geometry" />
        </mxCell>
      </root>
    </mxGraphModel>
  </diagram>
</mxfile>
